<svg width="37" height="37" viewBox="0 0 37 37" fill="none" xmlns="http://www.w3.org/2000/svg">
<g clip-path="url(#clip0_75_2)">
<path d="M36.9831 18.5327C36.9831 28.7516 28.5695 37.2149 18.0525 36.9996C8.04892 36.7843 -0.0500086 28.5529 -0.000321914 18.4499C0.0493647 8.21447 8.34704 -0.0335133 18.5328 -0.000388858C28.7683 0.0327356 37.0328 8.33041 36.9831 18.5327ZM35.89 18.5162C35.89 8.91009 28.0726 1.10928 18.4997 1.10928C8.92671 1.10928 1.10935 8.89352 1.10935 18.483C1.10935 28.1057 8.89359 35.9065 18.5162 35.8899C28.1058 35.8734 35.89 28.0891 35.89 18.5162Z" fill="#532881"/>
<path d="M28.487 24.4127C28.487 24.4458 28.4705 24.4789 28.4705 24.5121C28.3711 24.6114 28.3048 24.7274 28.3711 24.8764C28.3711 24.893 28.3711 24.9261 28.3545 24.9427C28.3048 24.9924 28.2386 25.0255 28.2386 25.1083C28.222 25.2574 28.1392 25.3899 28.0564 25.5389C27.7914 26.0523 27.4436 26.5161 27.013 26.897C26.4996 27.3608 25.9033 27.6754 25.2408 27.8576C24.8599 27.957 24.479 28.0067 24.0815 28.0067C20.355 28.0067 16.6285 27.9901 12.902 28.0067C12.0573 28.0067 11.2789 27.8576 10.5501 27.427C10.0367 27.1289 9.58953 26.7645 9.22516 26.2842C8.87736 25.8205 8.61236 25.3402 8.4633 24.7771C8.34736 24.3464 8.28112 23.9158 8.28112 23.4686C8.28112 20.9843 8.28112 18.4834 8.28112 15.9991C8.28112 15.3366 8.24799 14.6741 8.47986 14.0282C8.56267 13.7797 8.64548 13.5147 8.76142 13.2829C9.02642 12.786 9.35766 12.3388 9.78828 11.9745C10.3845 11.4776 11.0304 11.0801 11.8089 10.9642C11.8917 10.9476 11.9911 10.9145 12.0407 10.8482C12.0573 10.8482 12.0904 10.8482 12.107 10.8482C12.1732 10.9145 12.256 10.8648 12.3223 10.8648C13.2498 10.8648 14.1773 10.8648 15.0882 10.8482C15.2041 10.8482 15.3201 10.8814 15.3532 10.9973C15.4029 11.2457 15.5685 11.3948 15.7672 11.5273C15.8169 11.5604 15.8832 11.5935 15.8832 11.6763C15.8335 11.6929 15.7672 11.6929 15.7176 11.6929C15.2869 11.7426 14.8729 12.1566 14.8232 12.5541C14.7404 13.1835 15.2869 13.7135 15.8666 13.7135C16.0985 13.7135 16.2972 13.6141 16.5125 13.5644C16.9928 13.4651 17.4566 13.2994 17.9369 13.1835C18.3509 13.0841 18.7816 12.9516 19.1956 12.8688C19.6925 12.7529 20.1728 12.5873 20.6697 12.4879C20.8353 12.4548 21.0009 12.4051 21.1665 12.3554C21.3984 12.2891 21.6303 12.2229 21.8621 12.1732C22.0774 12.1235 22.2928 12.0738 22.4915 11.9413C22.8062 11.726 22.9552 11.4113 22.9387 11.047C22.9387 10.8814 22.9718 10.8317 23.1209 10.8482C23.7502 10.8814 24.3796 10.782 25.009 10.9476C25.3071 11.0304 25.6052 11.0967 25.8868 11.2292C26.6486 11.577 27.2614 12.0904 27.7417 12.786C27.9902 13.1504 28.1723 13.5313 28.3048 13.9288C28.3877 14.1607 28.4705 14.4091 28.4539 14.6741C28.4539 14.8397 28.4705 15.0053 28.5698 15.1544C28.5698 15.2041 28.5698 15.2372 28.5698 15.2869C28.5698 18.0362 28.5698 20.769 28.5698 23.5183C28.5698 23.568 28.5698 23.6011 28.5698 23.6508C28.487 23.9158 28.4208 24.1477 28.487 24.4127ZM24.744 18.6822C24.8102 17.2744 23.5349 16.0819 22.1934 16.0653C20.7525 16.0488 19.56 17.2909 19.56 18.649C19.56 20.1231 20.8022 21.2824 22.1603 21.2824C23.5349 21.2824 24.7936 20.1065 24.744 18.6822ZM17.2578 18.649C17.2578 17.2909 16.0985 16.115 14.7238 16.0653C13.2167 16.0156 12.0407 17.3075 12.0407 18.649C12.0407 20.1065 13.2498 21.2824 14.6576 21.2659C16.0819 21.2659 17.2578 20.1231 17.2578 18.649Z" fill="#4C2F85"/>
<path d="M12.0407 10.8481C11.9745 10.9144 11.8917 10.9475 11.8089 10.9641C11.0304 11.08 10.3845 11.4775 9.78826 11.9743C9.35764 12.3387 9.0264 12.7859 8.7614 13.2828C8.64547 13.5146 8.56266 13.7796 8.47985 14.0281C8.26454 14.674 8.2811 15.3365 8.2811 15.999C8.2811 18.4833 8.2811 20.9842 8.2811 23.4685C8.2811 23.9157 8.34735 24.3463 8.46328 24.7769C8.61234 25.3401 8.8939 25.8204 9.22515 26.2841C9.58952 26.7644 10.0367 27.1288 10.5501 27.4269C11.2789 27.8575 12.0573 28.0066 12.902 28.0066C16.6285 27.99 20.355 28.0066 24.0815 28.0066C24.4789 28.0066 24.8764 27.9569 25.2408 27.8575C25.9033 27.6753 26.4995 27.3606 27.013 26.8969C27.4436 26.516 27.7914 26.0522 28.0564 25.5388C28.1226 25.4063 28.2054 25.2738 28.2386 25.1082C28.2551 25.0254 28.3048 24.9923 28.3545 24.9426C28.4373 25.1082 28.3048 25.2572 28.2386 25.3732C27.9901 25.9363 27.6589 26.4332 27.1952 26.8307C26.8639 27.1453 26.483 27.3772 26.0855 27.5925C25.7542 27.7747 25.4064 27.9072 25.0586 27.9734C24.7936 28.0397 24.5286 28.1059 24.2471 28.1059C20.355 28.1059 16.4628 28.1059 12.5707 28.0894C12.1235 28.0894 11.6598 27.9734 11.2292 27.8078C10.7157 27.6256 10.2686 27.3606 9.83795 27.0294C9.42389 26.7147 9.09265 26.3007 8.82765 25.87C8.59578 25.4891 8.43016 25.0751 8.31422 24.6444C8.24798 24.4126 8.29766 24.1807 8.23141 23.9654C8.08235 23.4851 8.16516 23.0048 8.13204 22.5245C8.11548 22.5245 8.09892 22.5245 8.09892 22.5245C7.85048 22.9551 7.43643 22.8392 7.0555 22.806C6.84019 22.7895 6.62488 22.4085 6.62488 22.127C6.62488 20.9511 6.62488 19.7917 6.62488 18.6158C6.62488 17.9533 6.62488 17.2908 6.62488 16.6118C6.62488 16.4296 6.67456 16.2474 6.82362 16.0983C6.93956 15.9824 7.07206 15.9162 7.23768 15.9162C7.56892 15.9162 7.91673 15.8665 8.1486 16.2308C8.1486 15.9493 8.11548 15.6677 8.1486 15.3862C8.23141 14.8727 8.24798 14.3427 8.43016 13.8293C8.71172 13.0012 9.20858 12.3222 9.87107 11.759C10.3183 11.3781 10.8317 11.1131 11.3782 10.9309C11.5604 10.8978 11.7923 10.7487 12.0407 10.8481ZM8.0161 19.4273C8.0161 18.4667 8.0161 17.5061 8.0161 16.5455C8.0161 16.4627 8.03267 16.3965 7.98298 16.3136C7.86704 16.0983 7.45299 15.9658 7.15487 16.0487C6.90644 16.1149 6.72425 16.2805 6.74081 16.6118C6.75738 18.4502 6.75738 20.2886 6.74081 22.127C6.74081 22.6239 6.98925 22.7398 7.37018 22.7729C7.81736 22.806 8.0161 22.5907 8.0161 22.1601C8.0161 21.2492 8.0161 20.3383 8.0161 19.4273Z" fill="#C1B7D5"/>
<path d="M28.5864 15.1711C28.487 15.0221 28.4704 14.8564 28.4704 14.6908C28.4704 14.4258 28.3876 14.1774 28.3214 13.9455C28.1889 13.548 28.0067 13.1671 27.7583 12.8027C27.278 12.1071 26.6652 11.5937 25.9033 11.2459C25.6217 11.1134 25.3236 11.0471 25.0255 10.9643C24.3961 10.7987 23.7668 10.8981 23.1374 10.8649C22.9884 10.8484 22.9552 10.8981 22.9552 11.0637C22.9718 11.4281 22.8062 11.7427 22.508 11.958C22.3259 12.0905 22.1106 12.1402 21.8787 12.1899C21.6468 12.2396 21.4149 12.3224 21.1831 12.3721C21.0174 12.4218 20.8518 12.4715 20.6862 12.5046C20.1893 12.604 19.709 12.7696 19.2122 12.8855C18.7981 12.9849 18.3675 13.1008 17.9534 13.2002C17.4731 13.3162 17.0094 13.4818 16.5291 13.5811C16.3138 13.6308 16.115 13.7302 15.8832 13.7302C15.3035 13.7468 14.7569 13.2002 14.8397 12.5709C14.8894 12.1734 15.32 11.7593 15.7341 11.7096C15.7838 11.7096 15.85 11.6931 15.8997 11.6931C15.8832 11.6102 15.8335 11.5771 15.7838 11.544C15.585 11.4115 15.4194 11.2624 15.3697 11.014C15.3366 10.8815 15.2372 10.8649 15.1047 10.8649C14.1773 10.8649 13.2498 10.8815 12.3388 10.8815C12.2726 10.8815 12.1898 10.9146 12.1235 10.8649C12.2395 10.7324 12.4217 10.749 12.5707 10.749C13.4982 10.7324 14.4257 10.749 15.3697 10.749C15.4691 10.749 15.4691 10.7159 15.4691 10.6496C15.5022 10.2853 15.7507 10.07 16.0985 9.93746C16.2972 9.87121 16.5291 9.90433 16.6781 9.75527C16.6947 9.73871 16.7278 9.73871 16.7444 9.73871C17.026 9.73871 17.2909 9.60621 17.5559 9.53996C17.7547 9.49028 17.9534 9.44059 18.1522 9.39091C18.3509 9.32466 18.5828 9.34122 18.765 9.20872C18.7815 9.20872 18.7981 9.19216 18.7981 9.19216C19.0465 9.24184 19.2453 9.09278 19.4772 9.0431C19.6593 9.00997 19.8747 8.96029 20.0734 8.87748C20.355 8.7781 20.6696 8.66217 20.9512 8.84435C21.1665 8.99341 21.3984 9.14247 21.3818 9.47372C21.3653 9.73871 21.3653 9.97058 21.1499 10.1693C20.9678 10.335 20.7525 10.4012 20.5537 10.4178C20.3218 10.4509 20.1231 10.5337 19.8912 10.5834C19.6925 10.6331 19.4772 10.6993 19.2784 10.749C18.9306 10.8318 18.5994 10.9146 18.2681 10.9974C17.9203 11.0968 17.5725 11.1796 17.2413 11.279C16.9431 11.3618 16.6285 11.4612 16.3138 11.5109C16.2641 11.5109 16.1978 11.4943 16.1978 11.5771C16.1978 11.6268 16.231 11.6765 16.2972 11.6765C16.4463 11.6599 16.5953 11.7096 16.7444 11.5937C16.8769 11.5109 17.0591 11.4943 17.2247 11.4612C17.5725 11.4115 17.9038 11.279 18.235 11.2127C18.4337 11.1796 18.6822 11.1962 18.8478 11.0306C18.8644 11.0306 18.8809 11.014 18.8809 11.014C19.1128 11.0637 19.3115 10.9312 19.5103 10.8649C19.8415 10.7821 20.1728 10.6828 20.504 10.5999C20.7193 10.5503 20.9346 10.484 21.1499 10.4343C21.3487 10.3846 21.5806 10.3681 21.7793 10.2687C21.8621 10.219 21.9449 10.219 22.0277 10.2356C22.4087 10.335 22.7399 10.5171 22.8062 10.9974C22.8724 10.8815 22.7896 10.749 22.9055 10.6828C22.9884 10.6331 23.0877 10.6496 23.1871 10.6496C23.6177 10.6496 24.0815 10.5999 24.4955 10.6993C24.7439 10.7656 25.0089 10.7159 25.2739 10.8484C25.4064 10.9146 25.6052 10.9643 25.7708 11.014C25.9364 11.0637 26.0855 11.1631 26.2345 11.2459C26.9136 11.6268 27.4767 12.1402 27.9073 12.8027C28.2055 13.2665 28.4042 13.7633 28.5036 14.3099C28.5201 14.4258 28.5533 14.5418 28.5864 14.6411C28.5864 14.6743 28.5864 14.7074 28.6195 14.7239C28.5864 14.8896 28.6361 15.0386 28.5864 15.1711ZM22.6571 11.1465C22.6737 10.5834 22.1768 10.2687 21.5806 10.4674C21.3818 10.5337 21.1831 10.5668 20.9843 10.6331C20.62 10.749 20.2225 10.8318 19.8581 10.9312C19.5268 11.014 19.1956 11.0968 18.8644 11.1796C18.5166 11.2624 18.1522 11.3618 17.8044 11.4446C17.44 11.544 17.0756 11.6268 16.7113 11.7427C16.3303 11.8587 15.9328 11.9084 15.5685 12.0574C15.171 12.2065 15.0219 12.5874 15.171 13.0015C15.3035 13.3658 15.701 13.5315 16.0653 13.4155C16.115 13.399 16.1647 13.3824 16.2144 13.3824C16.5622 13.2996 16.9266 13.2168 17.2744 13.134C17.7547 13.0015 18.235 12.8524 18.7153 12.7365C19.2122 12.604 19.709 12.5046 20.2059 12.3721C20.8353 12.2065 21.4646 12.0243 22.094 11.8752C22.4087 11.7759 22.7068 11.4777 22.6571 11.1465ZM16.2807 11.3949C16.38 11.3784 16.4794 11.3949 16.5622 11.3618C16.8935 11.2293 17.2578 11.1631 17.6056 11.0803C18.1025 10.9643 18.5994 10.8153 19.1128 10.6993C19.5434 10.5999 19.9575 10.5006 20.3715 10.3681C20.5703 10.3018 20.7856 10.3184 20.9678 10.1859C21.1996 10.0203 21.3653 9.67246 21.299 9.42403C21.1996 9.12591 20.9678 8.86091 20.6034 8.87748C20.2059 8.9106 19.825 9.05966 19.444 9.14247C19.0962 9.20872 18.7484 9.32466 18.4006 9.42403C18.0528 9.50684 17.705 9.58965 17.3572 9.68902C16.9763 9.80496 16.5953 9.88777 16.1978 9.98714C15.7672 10.0865 15.5519 10.3846 15.5685 10.749C15.585 11.0803 15.8832 11.4281 16.2807 11.3949ZM15.9163 11.7924C15.9825 11.809 16.0488 11.8256 16.1316 11.7759C16.0488 11.7593 15.9825 11.7593 15.9163 11.7924ZM22.8227 11.3121C22.8227 11.2956 22.8062 11.2956 22.8062 11.279C22.8062 11.2956 22.7896 11.2956 22.7896 11.3121C22.7896 11.3287 22.8062 11.3287 22.8062 11.3452C22.8062 11.3287 22.8227 11.3287 22.8227 11.3121Z" fill="#C1B7D5"/>
<path d="M6.40956 19.4111C6.40956 19.908 6.40956 20.4214 6.40956 20.9183C6.40956 21.2826 6.24393 21.4483 5.87957 21.4648C5.69738 21.4648 5.5152 21.4814 5.31645 21.4317C5.08458 21.3489 4.98521 21.1833 4.98521 20.9845C4.96864 19.9411 4.98521 18.8977 4.98521 17.8377C4.98521 17.5561 5.20051 17.3574 5.46551 17.3408C5.61457 17.3408 5.76363 17.3408 5.91269 17.3408C6.22737 17.3574 6.39299 17.5396 6.39299 17.8543C6.42612 18.3677 6.40956 18.8977 6.40956 19.4111Z" fill="#4F3287"/>
<path d="M31.7995 19.4111C31.7995 19.908 31.7995 20.4049 31.7995 20.9017C31.7995 21.2992 31.667 21.4317 31.2364 21.4649C31.0873 21.4814 30.9383 21.4814 30.7726 21.4483C30.5242 21.382 30.3917 21.2661 30.3917 20.9183C30.3751 19.9246 30.3917 18.9143 30.3917 17.9205C30.3917 17.5562 30.607 17.3574 30.9714 17.3574C31.0708 17.3574 31.1701 17.3574 31.2861 17.3574C31.6339 17.374 31.7995 17.5396 31.7995 17.8709C31.7995 18.2021 31.7995 18.5333 31.7995 18.8646C31.7995 19.0302 31.7995 19.229 31.7995 19.4111Z" fill="#4F3287"/>
<path d="M18.4172 7.83381C18.2847 7.76756 18.1853 7.71787 18.086 7.66818C17.8375 7.53569 17.8044 7.32038 17.8044 7.05538C17.821 6.82351 17.9535 6.69101 18.1356 6.59164C18.3013 6.49227 18.7319 6.59164 18.8644 6.72414C19.0466 6.92288 19.0797 7.20444 18.9472 7.43631C18.9141 7.50256 18.8313 7.56881 18.8809 7.63506C18.9472 7.71787 19.0466 7.65162 19.1128 7.63506C19.4109 7.55225 19.7256 7.45287 20.0237 7.40319C20.4544 7.33694 20.7856 7.63506 20.7525 8.03255C20.7359 8.31411 20.504 8.52942 20.1562 8.61223C19.6097 8.74473 19.0797 8.89379 18.5331 9.02629C18.1853 9.1091 17.8375 9.17535 17.4897 9.29128C17.2744 9.35753 17.0591 9.39065 16.8604 9.4569C16.4794 9.5894 16.1813 9.40722 16.0488 9.05941C15.9329 8.72817 16.1647 8.3638 16.496 8.28099C16.9929 8.14849 17.5063 8.01599 18.0031 7.88349C18.1356 7.88349 18.2516 7.86693 18.4172 7.83381ZM16.7279 9.35753C16.8438 9.34097 16.9432 9.37409 17.0591 9.32441C17.291 9.24159 17.5228 9.15878 17.7878 9.15878C17.821 9.15878 17.8541 9.15878 17.9038 9.12566C18.086 8.99316 18.3178 8.9766 18.5166 8.94347C18.7484 8.91035 18.9472 8.74473 19.1956 8.79441C19.1956 8.79441 19.2122 8.79441 19.2122 8.77785C19.4441 8.64535 19.7091 8.62879 19.9575 8.54598C20.1397 8.47973 20.3715 8.52942 20.5372 8.3638C20.7028 8.16505 20.7359 7.90005 20.5703 7.65162C20.4875 7.51912 20.1562 7.41975 19.9906 7.486C19.7587 7.60193 19.4937 7.60193 19.2619 7.70131C19.0963 7.76756 18.8975 7.71787 18.7816 7.80068C18.5828 7.93318 18.3675 7.91662 18.1688 7.98287C17.8872 8.06568 17.5891 8.14849 17.291 8.21474C17.026 8.26442 16.7775 8.3638 16.5125 8.41348C16.231 8.46317 16.2144 8.69504 16.1979 8.87723C16.1813 9.02629 16.2476 9.22503 16.4463 9.30784C16.5291 9.37409 16.6285 9.34097 16.7279 9.35753Z" fill="#4F3287"/>
<path d="M30.1598 19.4275C30.1598 20.3881 30.1598 21.3487 30.1598 22.2928C30.1598 22.624 29.9445 22.8559 29.6133 22.8393C29.398 22.8393 29.1661 22.9056 28.9673 22.74C28.8017 22.6075 28.6858 22.475 28.6858 22.2431C28.6858 20.3384 28.6858 18.4338 28.6858 16.5291C28.6858 16.2641 28.9011 16.0157 29.1661 15.966C29.4311 15.9329 29.7126 15.8998 29.9445 16.0654C30.0936 16.1648 30.1598 16.3138 30.1598 16.496C30.1598 17.4732 30.1598 18.4503 30.1598 19.4275ZM28.7852 19.3944C28.7852 20.3384 28.7852 21.2659 28.7852 22.21C28.7852 22.5578 28.9011 22.7234 29.2158 22.7565C29.6961 22.8062 30.0936 22.74 30.0936 22.0609C30.077 20.2556 30.0936 18.4503 30.0936 16.6451C30.0936 16.2641 29.8617 16.0488 29.4642 16.0323C29.0998 16.0157 28.7686 16.1979 28.7852 16.6285C28.8017 17.5394 28.7852 18.4669 28.7852 19.3944Z" fill="#C1B7D5"/>
<path d="M28.487 24.4128C28.4207 24.1644 28.487 23.916 28.5864 23.6841C28.6361 23.8166 28.6029 23.9491 28.6029 24.065C28.5532 24.0981 28.5698 24.1313 28.5698 24.1809C28.5532 24.2638 28.5532 24.3466 28.487 24.4128Z" fill="#C1B7D5"/>
<path d="M28.3711 24.8766C28.3214 24.7275 28.3711 24.6116 28.4704 24.5122C28.5367 24.6613 28.4539 24.7772 28.3711 24.8766Z" fill="#C1B7D5"/>
<path d="M28.5698 24.1809C28.5698 24.1312 28.5533 24.0981 28.603 24.0649C28.6527 24.1146 28.6527 24.1643 28.5698 24.1809Z" fill="#F2F0F7"/>
<path d="M28.6029 14.7405C28.5698 14.724 28.5698 14.6908 28.5698 14.6577C28.6195 14.6743 28.6526 14.6908 28.6029 14.7405Z" fill="#F2F0F7"/>
<path d="M8.01614 19.4273C8.01614 20.3383 8.01614 21.2492 8.01614 22.1601C8.01614 22.6073 7.81739 22.806 7.37021 22.7729C6.98928 22.7398 6.74084 22.6404 6.74084 22.127C6.75741 20.2886 6.75741 18.4502 6.74084 16.6118C6.74084 16.2805 6.92303 16.1149 7.1549 16.0487C7.46958 15.9658 7.86708 16.0818 7.98301 16.3136C8.01614 16.3799 8.01614 16.4627 8.01614 16.5455C8.01614 17.5061 8.01614 18.4667 8.01614 19.4273Z" fill="#4F3287"/>
<path d="M22.6571 11.1461C22.6903 11.494 22.3921 11.7755 22.094 11.8418C21.4647 11.9908 20.8353 12.173 20.2059 12.3386C19.7091 12.4711 19.2122 12.5705 18.7153 12.703C18.235 12.8355 17.7547 12.968 17.2744 13.1005C16.9266 13.1999 16.5622 13.2661 16.2144 13.3489C16.1648 13.3655 16.1151 13.3655 16.0654 13.382C15.701 13.5145 15.3035 13.3324 15.171 12.968C15.022 12.5539 15.171 12.173 15.5685 12.0239C15.9329 11.8749 16.3304 11.8252 16.7113 11.7093C17.0757 11.6099 17.44 11.5105 17.8044 11.4111C18.1522 11.3283 18.5166 11.229 18.8644 11.1461C19.1956 11.0633 19.5269 10.9805 19.8581 10.8977C20.2391 10.7983 20.62 10.7155 20.9844 10.5996C21.1831 10.5333 21.3819 10.5002 21.5806 10.434C22.1934 10.2518 22.6903 10.583 22.6571 11.1461Z" fill="#4F3287"/>
<path d="M16.2807 11.3948C15.8998 11.4445 15.5851 11.0967 15.5685 10.7488C15.552 10.3845 15.7673 10.0864 16.1979 9.98699C16.5788 9.88761 16.9763 9.8048 17.3572 9.68887C17.705 9.58949 18.0528 9.52324 18.4007 9.42387C18.7485 9.34106 19.0963 9.22512 19.4441 9.14231C19.825 9.0595 20.2059 8.91044 20.6034 8.87732C20.9678 8.84419 21.1997 9.10919 21.299 9.42387C21.3819 9.6723 21.1997 10.0035 20.9678 10.1857C20.7856 10.3182 20.5703 10.3182 20.3716 10.3679C19.9575 10.5004 19.5269 10.5998 19.1128 10.6992C18.5994 10.8151 18.1025 10.9642 17.6057 11.0801C17.2579 11.1629 16.9101 11.2292 16.5622 11.3616C16.4794 11.3948 16.3801 11.3782 16.2807 11.3948Z" fill="#4F3287"/>
<path d="M15.9163 11.7921C15.9826 11.759 16.0488 11.759 16.1316 11.7755C16.0488 11.8087 15.9826 11.8087 15.9163 11.7921Z" fill="white"/>
<path d="M22.8227 11.3119C22.8227 11.3285 22.8062 11.3285 22.8062 11.3451C22.8062 11.3285 22.7896 11.3285 22.7896 11.3119C22.7896 11.3119 22.8062 11.2954 22.8062 11.2788C22.8062 11.2954 22.8062 11.2954 22.8227 11.3119Z" fill="white"/>
<path d="M16.7278 9.35755C16.6285 9.34099 16.5291 9.37411 16.4297 9.32442C16.2144 9.24161 16.1647 9.04287 16.1813 8.89381C16.1978 8.72818 16.2144 8.49631 16.496 8.43007C16.761 8.38038 17.0094 8.281 17.2744 8.23132C17.5725 8.16507 17.8706 8.09882 18.1522 7.99945C18.3509 7.9332 18.5662 7.94976 18.765 7.81726C18.8809 7.73445 19.0797 7.78414 19.2453 7.71789C19.4772 7.63508 19.7422 7.61852 19.974 7.50258C20.1231 7.43633 20.4543 7.51914 20.5537 7.6682C20.7193 7.91664 20.6862 8.18163 20.5206 8.38038C20.355 8.56256 20.1397 8.49631 19.9409 8.56256C19.6925 8.64537 19.4275 8.66194 19.1956 8.79443L19.179 8.811C18.9306 8.76131 18.7319 8.91037 18.5 8.96006C18.3012 8.99318 18.0694 9.00974 17.8872 9.14224C17.8541 9.17536 17.8209 9.17536 17.7713 9.17536C17.5228 9.17536 17.2744 9.25818 17.0425 9.34099C16.9431 9.37411 16.8272 9.34099 16.7278 9.35755Z" fill="#4C2F85"/>
<path d="M28.7851 19.3944C28.7851 18.4669 28.8017 17.5394 28.7851 16.6285C28.7686 16.1978 29.0998 16.0322 29.4642 16.0322C29.8451 16.0488 30.0936 16.2641 30.0936 16.645C30.0936 18.4503 30.077 20.2556 30.0936 22.0609C30.0936 22.7399 29.6961 22.8227 29.2158 22.7565C28.8845 22.7234 28.7851 22.5577 28.7851 22.2099C28.7851 21.2659 28.7851 20.3218 28.7851 19.3944Z" fill="#4F3287"/>
<path d="M22.1603 20.5535C21.0672 20.6032 20.2556 19.6923 20.2556 18.682C20.2556 17.6386 21.1169 16.7773 22.1603 16.7773C23.2203 16.7773 24.0815 17.622 24.0649 18.6986C24.0649 19.7089 23.2368 20.6032 22.1603 20.5535Z" fill="#4F3287"/>
<path d="M15.9163 17.2743C16.3138 17.5558 16.496 17.9533 16.5457 18.417C16.6285 19.1623 16.3966 19.7752 15.7672 20.2223C14.8563 20.8683 13.5313 20.6198 12.9682 19.5764C12.4548 18.6158 12.8026 17.4233 13.7963 16.943C14.4423 16.6283 15.2207 16.6946 15.8004 17.1418C15.8666 17.1749 15.9163 17.208 15.9163 17.2743C15.8666 17.2743 15.8335 17.2743 15.7838 17.2411C15.5685 17.0921 15.3532 16.9761 15.0882 16.8933C14.7072 16.7774 14.3429 16.8271 14.0116 16.9596C13.3491 17.208 12.9848 17.7546 12.8192 18.4336C12.7363 18.7649 12.8523 19.0795 12.9682 19.3777C13.1007 19.6923 13.2995 19.9573 13.5976 20.1726C13.8129 20.3217 14.0613 20.4376 14.2932 20.4873C14.7569 20.5701 15.2372 20.5039 15.6347 20.2389C15.9163 20.0401 16.1978 19.7752 16.3138 19.4439C16.3469 19.328 16.4628 19.212 16.4463 19.0961C16.4132 18.7483 16.5457 18.4005 16.3469 18.0527C16.231 17.8374 16.1316 17.6055 15.966 17.4233C15.9329 17.3571 15.9163 17.3239 15.9163 17.2743Z" fill="#4F3287"/>
<path d="M15.9163 17.2746C15.9163 17.3243 15.9329 17.3574 15.966 17.4071C16.1316 17.5893 16.231 17.8212 16.3469 18.0365C16.5457 18.3843 16.3966 18.7321 16.4463 19.0799C16.4629 19.1958 16.3635 19.3118 16.3138 19.4277C16.1979 19.7755 15.9329 20.0405 15.6347 20.2227C15.2373 20.4877 14.757 20.5539 14.2932 20.4711C14.0448 20.4214 13.8129 20.3221 13.5976 20.1564C13.2995 19.9411 13.1007 19.6761 12.9682 19.3614C12.8523 19.0633 12.7364 18.7486 12.8192 18.4174C12.9848 17.7384 13.3492 17.1918 14.0117 16.9434C14.3429 16.8109 14.7073 16.7777 15.0882 16.8771C15.3532 16.9599 15.5685 17.0759 15.7838 17.2249C15.8335 17.2746 15.8666 17.2746 15.9163 17.2746Z" fill="#4C2F85"/>
</g>
<defs>
<clipPath id="clip0_75_2">
<rect width="37" height="37" fill="white"/>
</clipPath>
</defs>
</svg>