<svg width="20" height="20" viewBox="0 0 20 20" fill="none" xmlns="http://www.w3.org/2000/svg">
<path d="M0.941446 20C0.892765 19.9208 0.801489 19.9208 0.728468 19.8842C-0.0321708 19.5126 -0.239064 18.5013 0.320765 17.8677C0.369446 17.8068 0.430297 17.752 0.485063 17.6971C2.99821 15.1811 5.50528 12.6711 8.01842 10.1611C8.1523 10.027 8.12796 9.97221 8.01234 9.85646C5.48094 7.33428 2.9617 4.80601 0.436382 2.27774C-0.0808517 1.7599 -0.141703 1.07148 0.272084 0.51709C0.722382 -0.0799475 1.59255 -0.171331 2.15238 0.328231C2.23757 0.40743 2.32277 0.492721 2.40187 0.57192C4.88459 3.05754 7.3734 5.54317 9.85004 8.02879C9.97174 8.15064 10.0265 8.15064 10.1482 8.02879C12.6674 5.49443 15.1928 2.97225 17.7181 0.443983C18.2657 -0.104316 19.002 -0.146962 19.5558 0.328231C19.787 0.529274 19.9087 0.797332 19.9939 1.08367C19.9939 1.25425 19.9939 1.42483 19.9939 1.58932C19.8418 2.04624 19.4949 2.34476 19.1724 2.66764C16.7871 5.05579 14.3956 7.45003 12.0103 9.83818C11.9555 9.89301 11.8886 9.93566 11.8034 10.0027C11.8886 10.0697 11.9433 10.1062 11.9859 10.155C14.4321 12.604 16.8783 15.0531 19.3306 17.5022C19.6166 17.7885 19.8905 18.0688 20 18.4709C20 18.6293 20 18.7816 20 18.94C19.9331 19.1166 19.8783 19.2994 19.7688 19.4578C19.5862 19.7259 19.3124 19.8721 19.0203 19.9939C18.8134 19.9939 18.6065 19.9939 18.3935 19.9939C18.0588 19.8842 17.8033 19.6588 17.5599 19.4151C15.0893 16.9417 12.6188 14.4744 10.1543 12.0009C10.0265 11.873 9.96566 11.8791 9.84396 12.0009C7.3734 14.4805 4.90285 16.9539 2.4323 19.4334C2.18889 19.6771 1.9394 19.8903 1.61081 20C1.38566 20 1.1666 20 0.941446 20Z" fill="white"/>
</svg>