<svg width="20" height="21" viewBox="0 0 20 21" fill="none" xmlns="http://www.w3.org/2000/svg">
<path d="M10.2337 0C10.6198 0.0991235 10.8911 0.359975 11.1571 0.63126C12.5292 2.01377 13.9065 3.38585 15.2786 4.76836C15.8994 5.39441 15.769 6.38042 15.0177 6.79257C14.5273 7.06385 13.9326 6.97516 13.5152 6.5578C12.8109 5.8535 12.1066 5.14921 11.4075 4.44491C11.3658 4.40317 11.3345 4.34057 11.298 4.2884C11.2823 4.29883 11.2615 4.30926 11.2458 4.3197C11.2458 4.38752 11.2458 4.45534 11.2458 4.52316C11.2458 7.6586 11.2458 10.794 11.2458 13.9242C11.2458 14.5451 10.8024 15.0668 10.192 15.1659C9.59724 15.265 9.01293 14.905 8.80947 14.326C8.7573 14.1747 8.74165 14.0234 8.74686 13.8669C8.74686 10.7523 8.74686 7.63773 8.74686 4.52316C8.74686 4.45534 8.74686 4.38752 8.74686 4.27275C8.53818 4.48664 8.35559 4.66924 8.17299 4.85184C7.60433 5.42571 7.03568 5.99958 6.4618 6.56302C5.75229 7.25167 4.60454 6.94386 4.35934 5.99436C4.23935 5.52483 4.36978 5.10747 4.7141 4.76315C5.41318 4.06406 6.11226 3.36498 6.81135 2.66068C7.48956 1.97725 8.17821 1.29904 8.8512 0.610392C9.11727 0.349541 9.38856 0.0991235 9.76418 0C9.92069 0 10.0772 0 10.2337 0Z" fill="white"/>
<path d="M0.983936 20.0283C0.947417 19.9656 0.874379 19.9761 0.816992 19.9552C0.253553 19.7413 -0.0855542 19.1414 0.0187864 18.5675C0.133561 17.9623 0.639613 17.5293 1.25 17.5293C7.08264 17.5293 12.9153 17.5293 18.7479 17.5293C19.3479 17.5293 19.8226 17.9154 19.9635 18.5049C19.9687 18.5205 19.9843 18.531 20 18.5414C20 18.7083 20 18.8805 20 19.0475C19.927 19.1309 19.9217 19.2457 19.8748 19.3396C19.687 19.71 19.3687 19.9083 18.9879 20.023C12.9779 20.0283 6.98352 20.0283 0.983936 20.0283Z" fill="white"/>
</svg>